{
  "accessors": [
    {
      "bufferView": 0,
      "componentType": 5126,
      "count": 3212,
      "max": [
        0.29203882813453674,
        0.028649993240833282,
        0.09273301810026169
      ],
      "min": [
        -0.5198749899864197,
        -0.03881299868226051,
        -0.13090699911117554
      ],
      "type": "VEC3"
    },
    {
      "bufferView": 1,
      "componentType": 5125,
      "count": 5782,
      "type": "SCALAR"
    },
    {
      "bufferView": 2,
      "componentType": 5126,
      "count": 3212,
      "type": "VEC3"
    },
    {
      "bufferView": 3,
      "componentType": 5126,
      "count": 3212,
      "type": "VEC4"
    },
    {
      "bufferView": 4,
      "componentType": 5126,
      "count": 3212,
      "type": "VEC2"
    }
  ],
  "asset": {
    "version": "2.0"
  },
  "bufferViews": [
    {
      "buffer": 0,
      "byteLength": 38544,
      "target": 34962
    },
    {
      "buffer": 1,
      "byteLength": 23128,
      "target": 34963
    },
    {
      "buffer": 2,
      "byteLength": 38544,
      "target": 34962
    },
    {
      "buffer": 3,
      "byteLength": 51392,
      "target": 34962
    },
    {
      "buffer": 4,
      "byteLength": 25696,
      "target": 34962
    }
  ],
  "buffers": [
    {
      "byteLength": 38544,
      "uri": "data:application/octet-stream;base64,"
    },
    {
      "byteLength": 23128,
      "uri": "data:application/octet-stream;base64,"
    },
    {
      "byteLength": 38544,
      "uri": "data:application/octet-stream;base64,"
    },
    {
      "byteLength": 51392,
      "uri": "data:application/octet-stream;base64,"
    },
    {
      "byteLength": 25696,
      "uri": "data:application/octet-stream;base64,"
    }
  ],
  "materials": [
    {}
  ],
  "meshes": [
    {
      "primitives": [
        {
          "attributes": {
            "NORMAL": 2,
            "POSITION": 0,
            "TANGENT": 3,
            "TEXCOORD_0": 4
          },
          "indices": 1,
          "material": 0,
          "mode": 5
        }
      ]
    }
  ],
  "nodes": [
    {
      "mesh": 0,
      "name": "_gltfNode_0"
    },
    {
      "children": [
        0
      ],
      "name": "GLTF Converted Scene",
      "rotation": [
        -0.7071067811865475,
        0.0,
        0.0,
        0.7071067811865476
      ],
      "scale": [
        1.0,
        1.0,
        1.0
      ],
      "translation": [
        0.0,
        0.0,
        0.0
      ]
    }
  ],
  "scene": 0,
  "scenes": [
    {
      "nodes": [
        1
      ]
    }
  ]
}
