// Created by Crowbar 0.74
version 1
nodes
  0 "weapon_bone" -1
end
skeleton
  time 0
    0 0.000000 -1.772578 -15.121245 0.000000 0.000000 0.000000
end
triangles
  phy
    0 1.579827 -7.587481 -34.076695 -0.321721 -0.946815 -0.006053 0 0
    0 1.366858 -15.479925 -46.918383 -0.531028 -0.834565 -0.146666 0 0
    0 1.108765 -7.708203 -34.038219 -0.297677 -0.826082 -0.478515 0 0
  phy
    0 1.579827 -7.587481 -34.076695 -0.321721 -0.946815 -0.006053 0 0
    0 2.436262 -7.708203 -34.038223 -0.341014 -0.851150 0.399065 0 0
    0 1.366858 -15.479925 -46.918383 -0.531028 -0.834565 -0.146666 0 0
  phy
    0 2.309976 -2.189860 -12.367448 0.024502 -0.977138 0.211189 0 0
    0 2.436262 -7.708203 -34.038223 -0.341014 -0.851150 0.399065 0 0
    0 1.579827 -7.587481 -34.076695 -0.321721 -0.946815 -0.006053 0 0
  phy
    0 1.579827 -7.587481 -34.076695 -0.321721 -0.946815 -0.006053 0 0
    0 1.773767 -2.128991 -12.392658 0.211618 -0.977305 -0.009624 0 0
    0 2.309976 -2.189860 -12.367448 0.024502 -0.977138 0.211189 0 0
  phy
    0 1.579827 -7.587481 -34.076695 -0.321721 -0.946815 -0.006053 0 0
    0 1.108765 -7.708203 -34.038219 -0.297677 -0.826082 -0.478515 0 0
    0 1.158978 -2.208752 -12.359619 0.058740 -0.968972 -0.240089 0 0
  phy
    0 1.158978 -2.208752 -12.359619 0.058740 -0.968972 -0.240089 0 0
    0 1.773767 -2.128991 -12.392658 0.211618 -0.977305 -0.009624 0 0
    0 1.579827 -7.587481 -34.076695 -0.321721 -0.946815 -0.006053 0 0
  phy
    0 3.910294 -3.616657 -11.776474 -0.024916 -0.288752 0.957080 0 0
    0 3.112115 -8.221642 -33.876136 -0.203128 -0.532682 0.821577 0 0
    0 3.699185 -3.157184 -11.966788 0.064024 -0.562883 0.824053 0 0
  phy
    0 3.699185 -3.157184 -11.966788 0.064024 -0.562883 0.824053 0 0
    0 3.112115 -8.221642 -33.876136 -0.203128 -0.532682 0.821577 0 0
    0 3.317023 -2.705171 -12.154010 0.101376 -0.749670 0.654002 0 0
  phy
    0 3.699185 -3.157184 -11.966788 0.064024 -0.562883 0.824053 0 0
    0 3.293266 -14.446821 18.520994 0.289592 -0.414966 0.862519 0 0
    0 3.910294 -3.616657 -11.776474 -0.024916 -0.288752 0.957080 0 0
  phy
    0 3.699185 -3.157184 -11.966788 0.064024 -0.562883 0.824053 0 0
    0 3.317023 -2.705171 -12.154010 0.101376 -0.749670 0.654002 0 0
    0 3.293266 -14.446821 18.520994 0.289592 -0.414966 0.862519 0 0
  phy
    0 2.885565 -2.404777 -12.278431 0.101542 -0.894183 0.436035 0 0
    0 2.436262 -7.708203 -34.038223 -0.341014 -0.851150 0.399065 0 0
    0 2.309976 -2.189860 -12.367448 0.024502 -0.977138 0.211189 0 0
  phy
    0 3.317023 -2.705171 -12.154010 0.101376 -0.749670 0.654002 0 0
    0 2.436262 -7.708203 -34.038223 -0.341014 -0.851150 0.399065 0 0
    0 2.885565 -2.404777 -12.278431 0.101542 -0.894183 0.436035 0 0
  phy
    0 2.309976 -2.189860 -12.367448 0.024502 -0.977138 0.211189 0 0
    0 2.412022 -13.665306 18.521006 0.357589 -0.883809 0.301682 0 0
    0 2.885565 -2.404777 -12.278431 0.101542 -0.894183 0.436035 0 0
  phy
    0 2.885565 -2.404777 -12.278431 0.101542 -0.894183 0.436035 0 0
    0 2.412022 -13.665306 18.521006 0.357589 -0.883809 0.301682 0 0
    0 3.317023 -2.705171 -12.154010 0.101376 -0.749670 0.654002 0 0
  phy
    0 1.096376 -21.979680 -46.243050 -0.953198 0.203290 -0.223800 0 0
    0 2.448534 -21.979680 -46.243057 -0.886471 0.189059 0.422405 0 0
    0 2.525030 -22.501725 -45.888342 0.037702 0.906295 0.420960 0 0
  phy
    0 1.096376 -21.979680 -46.243050 -0.953198 0.203290 -0.223800 0 0
    0 2.525030 -22.501725 -45.888342 0.037702 0.906295 0.420960 0 0
    0 1.019884 -22.501725 -45.888335 0.038013 0.884510 -0.464971 0 0
  phy
    0 2.731988 -21.729315 -45.517083 -0.031763 0.064529 0.997410 0 0
    0 2.525030 -22.501725 -45.888342 0.037702 0.906295 0.420960 0 0
    0 2.448534 -21.979680 -46.243057 -0.886471 0.189059 0.422405 0 0
  phy
    0 2.448534 -21.979680 -46.243057 -0.886471 0.189059 0.422405 0 0
    0 2.525023 -16.080228 -47.257803 -0.340706 -0.207172 0.917060 0 0
    0 2.731988 -21.729315 -45.517083 -0.031763 0.064529 0.997410 0 0
  phy
    0 2.448534 -21.979680 -46.243057 -0.886471 0.189059 0.422405 0 0
    0 1.096376 -21.979680 -46.243050 -0.953198 0.203290 -0.223800 0 0
    0 2.525023 -16.080228 -47.257803 -0.340706 -0.207172 0.917060 0 0
  phy
    0 0.633393 -2.417949 -12.286811 0.026671 -0.859500 -0.510440 0 0
    0 1.133511 -13.666565 18.521012 0.340727 -0.887949 -0.308952 0 0
    0 1.158978 -2.208752 -12.359619 0.058740 -0.968972 -0.240089 0 0
  phy
    0 1.133511 -13.666565 18.521012 0.340727 -0.887949 -0.308952 0 0
    0 1.773767 -2.128991 -12.392658 0.211618 -0.977305 -0.009624 0 0
    0 1.158978 -2.208752 -12.359619 0.058740 -0.968972 -0.240089 0 0
  phy
    0 1.108765 -7.708203 -34.038219 -0.297677 -0.826082 -0.478515 0 0
    0 0.633393 -2.417949 -12.286811 0.026671 -0.859500 -0.510440 0 0
    0 1.158978 -2.208752 -12.359619 0.058740 -0.968972 -0.240089 0 0
  phy
    0 3.920399 -8.716789 -26.640503 -0.031960 -0.018174 0.999324 0 0
    0 3.434382 -9.032361 -33.677758 -0.084455 -0.085828 0.992724 0 0
    0 3.910294 -3.616657 -11.776474 -0.024916 -0.288752 0.957080 0 0
  phy
    0 3.910294 -3.616657 -11.776474 -0.024916 -0.288752 0.957080 0 0
    0 3.996625 -4.184624 -11.541222 0.016865 -0.002536 0.999855 0 0
    0 3.920399 -8.716789 -26.640503 -0.031960 -0.018174 0.999324 0 0
  phy
    0 3.910294 -3.616657 -11.776474 -0.024916 -0.288752 0.957080 0 0
    0 3.434382 -9.032361 -33.677758 -0.084455 -0.085828 0.992724 0 0
    0 3.112115 -8.221642 -33.876136 -0.203128 -0.532682 0.821577 0 0
  phy
    0 3.293266 -14.446821 18.520994 0.289592 -0.414966 0.862519 0 0
    0 3.996625 -4.184624 -11.541222 0.016865 -0.002536 0.999855 0 0
    0 3.910294 -3.616657 -11.776474 -0.024916 -0.288752 0.957080 0 0
  phy
    0 2.309976 -2.189860 -12.367448 0.024502 -0.977138 0.211189 0 0
    0 1.773767 -2.128991 -12.392658 0.211618 -0.977305 -0.009624 0 0
    0 2.412022 -13.665306 18.521006 0.357589 -0.883809 0.301682 0 0
  phy
    0 3.636404 -18.624694 -1.389009 -0.012037 0.070408 0.997446 0 0
    0 3.897129 -10.240728 -26.257539 -0.013755 0.063672 0.997876 0 0
    0 3.877620 -12.043913 -7.254355 0.001764 0.023019 0.999733 0 0
  phy
    0 3.877620 -12.043913 -7.254355 0.001764 0.023019 0.999733 0 0
    0 3.636425 -18.916561 2.873764 0.016831 0.062070 0.997930 0 0
    0 3.636404 -18.624694 -1.389009 -0.012037 0.070408 0.997446 0 0
  phy
    0 2.731988 -21.729315 -45.517083 -0.031763 0.064529 0.997410 0 0
    0 3.897129 -10.240728 -26.257539 -0.013755 0.063672 0.997876 0 0
    0 3.636404 -18.624694 -1.389009 -0.012037 0.070408 0.997446 0 0
  phy
    0 3.636404 -18.624694 -1.389009 -0.012037 0.070408 0.997446 0 0
    0 3.636425 -18.916561 2.873764 0.016831 0.062070 0.997930 0 0
    0 2.731988 -21.729315 -45.517083 -0.031763 0.064529 0.997410 0 0
  phy
    0 1.096376 -21.979680 -46.243050 -0.953198 0.203290 -0.223800 0 0
    0 1.019884 -22.501725 -45.888335 0.038013 0.884510 -0.464971 0 0
    0 0.812929 -21.520517 -45.603559 -0.031657 0.064801 -0.997396 0 0
  phy
    0 1.019877 -16.080229 -47.257796 -0.216326 -0.081339 -0.972927 0 0
    0 1.096376 -21.979680 -46.243050 -0.953198 0.203290 -0.223800 0 0
    0 0.812929 -21.520517 -45.603559 -0.031657 0.064801 -0.997396 0 0
  phy
    0 1.096376 -21.979680 -46.243050 -0.953198 0.203290 -0.223800 0 0
    0 1.019877 -16.080229 -47.257796 -0.216326 -0.081339 -0.972927 0 0
    0 2.525023 -16.080228 -47.257803 -0.340706 -0.207172 0.917060 0 0
  phy
    0 0.110650 -9.032359 -33.677742 -0.086731 -0.088816 -0.992265 0 0
    0 -0.385453 -3.687102 -11.747276 -0.023518 -0.308738 -0.950856 0 0
    0 0.432916 -8.221640 -33.876124 -0.214651 -0.562152 -0.798692 0 0
  phy
    0 -0.385453 -3.687102 -11.747276 -0.023518 -0.308738 -0.950856 0 0
    0 -0.152830 -3.155343 -11.967532 0.060231 -0.531560 -0.844876 0 0
    0 0.432916 -8.221640 -33.876124 -0.214651 -0.562152 -0.798692 0 0
  phy
    0 -0.385453 -3.687102 -11.747276 -0.023518 -0.308738 -0.950856 0 0
    0 0.110650 -9.032359 -33.677742 -0.086731 -0.088816 -0.992265 0 0
    0 -0.352028 -8.336338 -26.620709 -0.064060 -0.178567 -0.981840 0 0
  phy
    0 -0.451415 -4.182539 -11.542064 0.016114 -0.004630 -0.999859 0 0
    0 -0.385453 -3.687102 -11.747276 -0.023518 -0.308738 -0.950856 0 0
    0 -0.352028 -8.336338 -26.620709 -0.064060 -0.178567 -0.981840 0 0
  phy
    0 -0.152830 -3.155343 -11.967532 0.060231 -0.531560 -0.844876 0 0
    0 -0.385453 -3.687102 -11.747276 -0.023518 -0.308738 -0.950856 0 0
    0 0.252268 -14.446821 18.521008 0.233841 -0.414070 -0.879696 0 0
  phy
    0 -0.385453 -3.687102 -11.747276 -0.023518 -0.308738 -0.950856 0 0
    0 -0.451415 -4.182539 -11.542064 0.016114 -0.004630 -0.999859 0 0
    0 0.252268 -14.446821 18.521008 0.233841 -0.414070 -0.879696 0 0
  phy
    0 1.366858 -15.479925 -46.918383 -0.531028 -0.834565 -0.146666 0 0
    0 0.432916 -8.221640 -33.876124 -0.214651 -0.562152 -0.798692 0 0
    0 1.108765 -7.708203 -34.038219 -0.297677 -0.826082 -0.478515 0 0
  phy
    0 0.432916 -8.221640 -33.876124 -0.214651 -0.562152 -0.798692 0 0
    0 0.633393 -2.417949 -12.286811 0.026671 -0.859500 -0.510440 0 0
    0 1.108765 -7.708203 -34.038219 -0.297677 -0.826082 -0.478515 0 0
  phy
    0 -0.352030 -9.000498 -27.072116 -0.037869 0.000517 -0.999283 0 0
    0 0.110650 -9.032359 -33.677742 -0.086731 -0.088816 -0.992265 0 0
    0 0.812929 -21.520517 -45.603559 -0.031657 0.064801 -0.997396 0 0
  phy
    0 0.110650 -9.032359 -33.677742 -0.086731 -0.088816 -0.992265 0 0
    0 1.019877 -16.080229 -47.257796 -0.216326 -0.081339 -0.972927 0 0
    0 0.812929 -21.520517 -45.603559 -0.031657 0.064801 -0.997396 0 0
  phy
    0 0.110650 -9.032359 -33.677742 -0.086731 -0.088816 -0.992265 0 0
    0 -0.352030 -9.000498 -27.072116 -0.037869 0.000517 -0.999283 0 0
    0 -0.352028 -8.336338 -26.620709 -0.064060 -0.178567 -0.981840 0 0
  phy
    0 0.110650 -9.032359 -33.677742 -0.086731 -0.088816 -0.992265 0 0
    0 0.432916 -8.221640 -33.876124 -0.214651 -0.562152 -0.798692 0 0
    0 1.019877 -16.080229 -47.257796 -0.216326 -0.081339 -0.972927 0 0
  phy
    0 1.133511 -13.666565 18.521012 0.340727 -0.887949 -0.308952 0 0
    0 0.252268 -14.446821 18.521008 0.233841 -0.414070 -0.879696 0 0
    0 2.412022 -13.665306 18.521006 0.357589 -0.883809 0.301682 0 0
  phy
    0 0.252268 -14.446821 18.521008 0.233841 -0.414070 -0.879696 0 0
    0 3.293266 -14.446821 18.520994 0.289592 -0.414966 0.862519 0 0
    0 2.412022 -13.665306 18.521006 0.357589 -0.883809 0.301682 0 0
  phy
    0 0.252268 -14.446821 18.521008 0.233841 -0.414070 -0.879696 0 0
    0 0.234589 -15.736953 18.520996 0.085614 0.082081 -0.992942 0 0
    0 3.293266 -14.446821 18.520994 0.289592 -0.414966 0.862519 0 0
  phy
    0 0.234589 -15.736953 18.520996 0.085614 0.082081 -0.992942 0 0
    0 1.135633 -16.613958 18.520984 0.300722 0.911851 -0.279452 0 0
    0 3.293266 -14.446821 18.520994 0.289592 -0.414966 0.862519 0 0
  phy
    0 1.135633 -16.613958 18.520984 0.300722 0.911851 -0.279452 0 0
    0 2.409901 -16.613958 18.520978 0.250460 0.913598 0.320325 0 0
    0 3.293266 -14.446821 18.520994 0.289592 -0.414966 0.862519 0 0
  phy
    0 2.409901 -16.613958 18.520978 0.250460 0.913598 0.320325 0 0
    0 3.310944 -15.736954 18.520982 0.036598 0.051526 0.998001 0 0
    0 3.293266 -14.446821 18.520994 0.289592 -0.414966 0.862519 0 0
  phy
    0 3.317023 -2.705171 -12.154010 0.101376 -0.749670 0.654002 0 0
    0 2.412022 -13.665306 18.521006 0.357589 -0.883809 0.301682 0 0
    0 3.293266 -14.446821 18.520994 0.289592 -0.414966 0.862519 0 0
  phy
    0 3.310944 -15.736954 18.520982 0.036598 0.051526 0.998001 0 0
    0 3.996625 -4.184624 -11.541222 0.016865 -0.002536 0.999855 0 0
    0 3.293266 -14.446821 18.520994 0.289592 -0.414966 0.862519 0 0
  phy
    0 3.112115 -8.221642 -33.876136 -0.203128 -0.532682 0.821577 0 0
    0 2.436262 -7.708203 -34.038223 -0.341014 -0.851150 0.399065 0 0
    0 3.317023 -2.705171 -12.154010 0.101376 -0.749670 0.654002 0 0
  phy
    0 -0.420168 -9.330661 -14.036157 0.001814 0.020821 -0.999782 0 0
    0 -0.352030 -9.000498 -27.072116 -0.037869 0.000517 -0.999283 0 0
    0 -0.352026 -10.240729 -26.257519 -0.013429 0.063149 -0.997914 0 0
  phy
    0 -0.352030 -9.000498 -27.072116 -0.037869 0.000517 -0.999283 0 0
    0 -0.420168 -9.330661 -14.036157 0.001814 0.020821 -0.999782 0 0
    0 -0.451415 -4.182539 -11.542064 0.016114 -0.004630 -0.999859 0 0
  phy
    0 -0.420168 -9.330661 -14.036157 0.001814 0.020821 -0.999782 0 0
    0 -0.352026 -10.240729 -26.257519 -0.013429 0.063149 -0.997914 0 0
    0 -0.091042 -18.916561 2.873781 0.007164 0.094244 -0.995523 0 0
  phy
    0 -0.451415 -4.182539 -11.542064 0.016114 -0.004630 -0.999859 0 0
    0 -0.420168 -9.330661 -14.036157 0.001814 0.020821 -0.999782 0 0
    0 -0.091042 -18.916561 2.873781 0.007164 0.094244 -0.995523 0 0
  phy
    0 -0.352030 -9.000498 -27.072116 -0.037869 0.000517 -0.999283 0 0
    0 -0.451415 -4.182539 -11.542064 0.016114 -0.004630 -0.999859 0 0
    0 -0.352028 -8.336338 -26.620709 -0.064060 -0.178567 -0.981840 0 0
  phy
    0 -0.352026 -10.240729 -26.257519 -0.013429 0.063149 -0.997914 0 0
    0 -0.352030 -9.000498 -27.072116 -0.037869 0.000517 -0.999283 0 0
    0 0.812929 -21.520517 -45.603559 -0.031657 0.064801 -0.997396 0 0
  phy
    0 -0.091062 -18.624694 -1.388991 -0.014387 0.078282 -0.996827 0 0
    0 -0.352026 -10.240729 -26.257519 -0.013429 0.063149 -0.997914 0 0
    0 0.812929 -21.520517 -45.603559 -0.031657 0.064801 -0.997396 0 0
  phy
    0 -0.352026 -10.240729 -26.257519 -0.013429 0.063149 -0.997914 0 0
    0 -0.091062 -18.624694 -1.388991 -0.014387 0.078282 -0.996827 0 0
    0 -0.091042 -18.916561 2.873781 0.007164 0.094244 -0.995523 0 0
  phy
    0 -0.091062 -18.624694 -1.388991 -0.014387 0.078282 -0.996827 0 0
    0 0.812929 -21.520517 -45.603559 -0.031657 0.064801 -0.997396 0 0
    0 -0.091042 -18.916561 2.873781 0.007164 0.094244 -0.995523 0 0
  phy
    0 2.731988 -21.729315 -45.517083 -0.031763 0.064529 0.997410 0 0
    0 3.434382 -9.032361 -33.677758 -0.084455 -0.085828 0.992724 0 0
    0 3.920399 -8.716789 -26.640503 -0.031960 -0.018174 0.999324 0 0
  phy
    0 2.731988 -21.729315 -45.517083 -0.031763 0.064529 0.997410 0 0
    0 2.525023 -16.080228 -47.257803 -0.340706 -0.207172 0.917060 0 0
    0 3.434382 -9.032361 -33.677758 -0.084455 -0.085828 0.992724 0 0
  phy
    0 3.920399 -8.716789 -26.640503 -0.031960 -0.018174 0.999324 0 0
    0 3.897129 -10.240728 -26.257539 -0.013755 0.063672 0.997876 0 0
    0 2.731988 -21.729315 -45.517083 -0.031763 0.064529 0.997410 0 0
  phy
    0 3.636425 -18.916561 2.873764 0.016831 0.062070 0.997930 0 0
    0 2.525030 -22.501725 -45.888342 0.037702 0.906295 0.420960 0 0
    0 2.731988 -21.729315 -45.517083 -0.031763 0.064529 0.997410 0 0
  phy
    0 3.877620 -12.043913 -7.254355 0.001764 0.023019 0.999733 0 0
    0 3.897129 -10.240728 -26.257539 -0.013755 0.063672 0.997876 0 0
    0 3.920399 -8.716789 -26.640503 -0.031960 -0.018174 0.999324 0 0
  phy
    0 3.920399 -8.716789 -26.640503 -0.031960 -0.018174 0.999324 0 0
    0 3.996625 -4.184624 -11.541222 0.016865 -0.002536 0.999855 0 0
    0 3.877620 -12.043913 -7.254355 0.001764 0.023019 0.999733 0 0
  phy
    0 3.877620 -12.043913 -7.254355 0.001764 0.023019 0.999733 0 0
    0 3.996625 -4.184624 -11.541222 0.016865 -0.002536 0.999855 0 0
    0 3.636425 -18.916561 2.873764 0.016831 0.062070 0.997930 0 0
  phy
    0 0.432916 -8.221640 -33.876124 -0.214651 -0.562152 -0.798692 0 0
    0 1.366858 -15.479925 -46.918383 -0.531028 -0.834565 -0.146666 0 0
    0 1.019877 -16.080229 -47.257796 -0.216326 -0.081339 -0.972927 0 0
  phy
    0 1.019877 -16.080229 -47.257796 -0.216326 -0.081339 -0.972927 0 0
    0 1.366858 -15.479925 -46.918383 -0.531028 -0.834565 -0.146666 0 0
    0 2.525023 -16.080228 -47.257803 -0.340706 -0.207172 0.917060 0 0
  phy
    0 2.436262 -7.708203 -34.038223 -0.341014 -0.851150 0.399065 0 0
    0 2.525023 -16.080228 -47.257803 -0.340706 -0.207172 0.917060 0 0
    0 1.366858 -15.479925 -46.918383 -0.531028 -0.834565 -0.146666 0 0
  phy
    0 1.135633 -16.613958 18.520984 0.300722 0.911851 -0.279452 0 0
    0 0.370721 -19.608809 2.892068 0.093601 0.872417 -0.479716 0 0
    0 1.772692 -19.828123 2.892059 0.089773 0.994332 0.056953 0 0
  phy
    0 1.135633 -16.613958 18.520984 0.300722 0.911851 -0.279452 0 0
    0 1.772692 -19.828123 2.892059 0.089773 0.994332 0.056953 0 0
    0 2.409901 -16.613958 18.520978 0.250460 0.913598 0.320325 0 0
  phy
    0 0.370721 -19.608809 2.892068 0.093601 0.872417 -0.479716 0 0
    0 1.135633 -16.613958 18.520984 0.300722 0.911851 -0.279452 0 0
    0 0.234589 -15.736953 18.520996 0.085614 0.082081 -0.992942 0 0
  phy
    0 1.019884 -22.501725 -45.888335 0.038013 0.884510 -0.464971 0 0
    0 0.370721 -19.608809 2.892068 0.093601 0.872417 -0.479716 0 0
    0 -0.091042 -18.916561 2.873781 0.007164 0.094244 -0.995523 0 0
  phy
    0 0.812929 -21.520517 -45.603559 -0.031657 0.064801 -0.997396 0 0
    0 1.019884 -22.501725 -45.888335 0.038013 0.884510 -0.464971 0 0
    0 -0.091042 -18.916561 2.873781 0.007164 0.094244 -0.995523 0 0
  phy
    0 0.370721 -19.608809 2.892068 0.093601 0.872417 -0.479716 0 0
    0 1.019884 -22.501725 -45.888335 0.038013 0.884510 -0.464971 0 0
    0 1.772692 -19.828123 2.892059 0.089773 0.994332 0.056953 0 0
  phy
    0 1.772692 -19.828123 2.892059 0.089773 0.994332 0.056953 0 0
    0 1.019884 -22.501725 -45.888335 0.038013 0.884510 -0.464971 0 0
    0 2.525030 -22.501725 -45.888342 0.037702 0.906295 0.420960 0 0
  phy
    0 0.432916 -8.221640 -33.876124 -0.214651 -0.562152 -0.798692 0 0
    0 -0.152830 -3.155343 -11.967532 0.060231 -0.531560 -0.844876 0 0
    0 0.172395 -2.756771 -12.132622 0.162686 -0.737517 -0.655440 0 0
  phy
    0 0.172395 -2.756771 -12.132622 0.162686 -0.737517 -0.655440 0 0
    0 -0.152830 -3.155343 -11.967532 0.060231 -0.531560 -0.844876 0 0
    0 0.252268 -14.446821 18.521008 0.233841 -0.414070 -0.879696 0 0
  phy
    0 -0.017530 -17.285380 10.299550 0.026561 0.028397 -0.999244 0 0
    0 0.370721 -19.608809 2.892068 0.093601 0.872417 -0.479716 0 0
    0 0.234589 -15.736953 18.520996 0.085614 0.082081 -0.992942 0 0
  phy
    0 0.370721 -19.608809 2.892068 0.093601 0.872417 -0.479716 0 0
    0 -0.017530 -17.285380 10.299550 0.026561 0.028397 -0.999244 0 0
    0 -0.091042 -18.916561 2.873781 0.007164 0.094244 -0.995523 0 0
  phy
    0 -0.451415 -4.182539 -11.542064 0.016114 -0.004630 -0.999859 0 0
    0 -0.017530 -17.285380 10.299550 0.026561 0.028397 -0.999244 0 0
    0 0.234589 -15.736953 18.520996 0.085614 0.082081 -0.992942 0 0
  phy
    0 -0.017530 -17.285380 10.299550 0.026561 0.028397 -0.999244 0 0
    0 -0.451415 -4.182539 -11.542064 0.016114 -0.004630 -0.999859 0 0
    0 -0.091042 -18.916561 2.873781 0.007164 0.094244 -0.995523 0 0
  phy
    0 0.432916 -8.221640 -33.876124 -0.214651 -0.562152 -0.798692 0 0
    0 0.172395 -2.756771 -12.132622 0.162686 -0.737517 -0.655440 0 0
    0 0.633393 -2.417949 -12.286811 0.026671 -0.859500 -0.510440 0 0
  phy
    0 0.172395 -2.756771 -12.132622 0.162686 -0.737517 -0.655440 0 0
    0 1.133511 -13.666565 18.521012 0.340727 -0.887949 -0.308952 0 0
    0 0.633393 -2.417949 -12.286811 0.026671 -0.859500 -0.510440 0 0
  phy
    0 2.412022 -13.665306 18.521006 0.357589 -0.883809 0.301682 0 0
    0 1.773767 -2.128991 -12.392658 0.211618 -0.977305 -0.009624 0 0
    0 1.133511 -13.666565 18.521012 0.340727 -0.887949 -0.308952 0 0
  phy
    0 3.452346 -19.346462 2.923035 0.092910 0.875803 0.473643 0 0
    0 3.636425 -18.916561 2.873764 0.016831 0.062070 0.997930 0 0
    0 3.310944 -15.736954 18.520982 0.036598 0.051526 0.998001 0 0
  phy
    0 3.452346 -19.346462 2.923035 0.092910 0.875803 0.473643 0 0
    0 3.310944 -15.736954 18.520982 0.036598 0.051526 0.998001 0 0
    0 2.409901 -16.613958 18.520978 0.250460 0.913598 0.320325 0 0
  phy
    0 3.636425 -18.916561 2.873764 0.016831 0.062070 0.997930 0 0
    0 3.996625 -4.184624 -11.541222 0.016865 -0.002536 0.999855 0 0
    0 3.310944 -15.736954 18.520982 0.036598 0.051526 0.998001 0 0
  phy
    0 3.452346 -19.346462 2.923035 0.092910 0.875803 0.473643 0 0
    0 2.525030 -22.501725 -45.888342 0.037702 0.906295 0.420960 0 0
    0 3.636425 -18.916561 2.873764 0.016831 0.062070 0.997930 0 0
  phy
    0 3.452346 -19.346462 2.923035 0.092910 0.875803 0.473643 0 0
    0 1.772692 -19.828123 2.892059 0.089773 0.994332 0.056953 0 0
    0 2.525030 -22.501725 -45.888342 0.037702 0.906295 0.420960 0 0
  phy
    0 1.772692 -19.828123 2.892059 0.089773 0.994332 0.056953 0 0
    0 3.452346 -19.346462 2.923035 0.092910 0.875803 0.473643 0 0
    0 2.409901 -16.613958 18.520978 0.250460 0.913598 0.320325 0 0
  phy
    0 3.434382 -9.032361 -33.677758 -0.084455 -0.085828 0.992724 0 0
    0 2.525023 -16.080228 -47.257803 -0.340706 -0.207172 0.917060 0 0
    0 3.112115 -8.221642 -33.876136 -0.203128 -0.532682 0.821577 0 0
  phy
    0 3.112115 -8.221642 -33.876136 -0.203128 -0.532682 0.821577 0 0
    0 2.525023 -16.080228 -47.257803 -0.340706 -0.207172 0.917060 0 0
    0 2.436262 -7.708203 -34.038223 -0.341014 -0.851150 0.399065 0 0
  phy
    0 -0.451415 -4.182539 -11.542064 0.016114 -0.004630 -0.999859 0 0
    0 0.234589 -15.736953 18.520996 0.085614 0.082081 -0.992942 0 0
    0 0.252268 -14.446821 18.521008 0.233841 -0.414070 -0.879696 0 0
  phy
    0 0.172395 -2.756771 -12.132622 0.162686 -0.737517 -0.655440 0 0
    0 0.252268 -14.446821 18.521008 0.233841 -0.414070 -0.879696 0 0
    0 1.133511 -13.666565 18.521012 0.340727 -0.887949 -0.308952 0 0
end
