version 1
nodes
0 "weapon_bone" -1
end
skeleton
time 0
0  0.000000 -1.772578 -15.121245  0.000000 -0.000000 0.000000
end
triangles
Material_0
0  -0.006904 -0.086394 -0.583286  -0.311453 -0.920662 -0.235328  0.926002 0.565733 1 0 1.000000
0  0.001097 -0.086394 -0.583286  0.319608 -0.918162 -0.234156  0.928371 0.564991 1 0 1.000000
0  0.003718 -0.086790 -0.580213  0.194154 -0.980969 0.001980  0.929813 0.564991 1 0 1.000000
Material_0
0  0.003718 -0.090393 -0.547729  -0.099903 -0.992594 -0.069110  0.936303 0.568810 1 0 1.000000
0  0.001097 -0.090789 -0.544656  -0.057191 -0.986937 0.150612  0.936097 0.569446 1 0 1.000000
0  0.003718 -0.086790 -0.580213  0.194154 -0.980969 0.001980  0.929813 0.564991 1 0 1.000000
Material_0
0  0.018387 -0.053920 -0.733170  0.972884 0.059794 -0.223430  0.500261 0.091967 1 0 1.000000
0  0.012633 -0.061659 -0.735400  0.528778 -0.809772 -0.254289  0.497480 0.089103 1 0 1.000000
0  0.013883 -0.057039 -0.741347  0.713242 -0.613847 -0.338346  0.496450 0.089633 1 0 1.000000
Material_0
0  -0.018538 -0.061659 -0.735400  -0.486123 -0.794144 -0.364719  0.485428 0.093134 1 0 1.000000
0  -0.024295 -0.053920 -0.733170  -0.998893 -0.036261 0.029967  0.483677 0.097377 1 0 1.000000
0  -0.019790 -0.057039 -0.741347  -0.274703 -0.904133 -0.327233  0.483368 0.093982 1 0 1.000000
Material_0
0  0.013883 0.053031 -0.741347  0.916611 0.323036 -0.235527  0.496450 0.133976 1 0 1.000000
0  0.012633 0.057651 -0.735400  0.176296 0.973737 -0.144070  0.497480 0.137158 1 0 1.000000
0  0.018387 0.049918 -0.733170  0.747963 0.470457 -0.468211  0.500261 0.133763 1 0 1.000000
Material_0
0  -0.019790 0.053031 -0.741347  0.182909 0.661263 -0.727513  0.483368 0.138219 1 0 1.000000
0  -0.024295 0.049918 -0.733170  -0.946385 0.003011 -0.323027  0.483677 0.139174 1 0 1.000000
0  -0.018538 0.057651 -0.735400  -0.714840 0.583043 -0.386088  0.485428 0.141083 1 0 1.000000
Material_0
0  0.013883 -0.057039 -0.741347  0.713242 -0.613847 -0.338346  0.000000 0.000000 1 0 1.000000
0  -0.019790 0.053031 -0.741347  0.182909 0.661263 -0.727513  0.483368 0.138219 1 0 1.000000
0  0.013883 0.053031 -0.741347  0.916611 0.323036 -0.235527  0.496450 0.133976 1 0 1.000000
Material_0
0  0.015071 -0.089513 -0.546862  0.371216 -0.928495 0.009776  0.000000 0.000000 1 0 1.000000
0  0.001097 -0.090789 -0.544656  -0.057191 -0.986937 0.150612  0.936097 0.569446 1 0 1.000000
0  0.003718 -0.090393 -0.547729  -0.099903 -0.992594 -0.069110  0.936303 0.568810 1 0 1.000000
Material_0
0  -0.009523 -0.090393 -0.547729  0.098371 -0.992004 -0.079064  0.932285 0.570189 1 0 1.000000
0  -0.009523 -0.086790 -0.580213  -0.159969 -0.968068 -0.193016  0.925796 0.566370 1 0 1.000000
0  -0.006904 -0.090789 -0.544656  0.041096 -0.974893 0.218848  0.933624 0.570295 1 0 1.000000
Material_0
0  -0.006904 -0.086394 -0.583286  -0.311453 -0.920662 -0.235328  0.926002 0.565733 1 0 1.000000
0  0.012633 -0.061659 -0.735400  0.528778 -0.809772 -0.254289  0.000000 0.000000 1 0 1.000000
0  0.001097 -0.086394 -0.583286  0.319608 -0.918162 -0.234156  0.928371 0.564991 1 0 1.000000
Material_0
0  -0.014318 -0.089847 -0.534695  -0.134286 -0.684372 0.716661  0.865020 0.368950 1 0 1.000000
0  -0.002955 0.024938 0.069079  -0.000017 -0.899581 0.436754  0.000000 0.000000 1 0 1.000000
0  -0.020976 -0.089513 -0.546862  -0.133431 -0.900321 0.414269  0.864505 0.368737 1 0 1.000000
Material_0
0  0.016812 -0.087779 -0.546663  0.778936 -0.618944 0.100829  0.000000 0.000000 1 0 1.000000
0  -0.002955 0.024938 0.069079  -0.000017 -0.899581 0.436754  0.898704 0.201444 1 0 1.000000
0  0.015071 -0.089513 -0.546862  0.371216 -0.928495 0.009776  0.000000 0.000000 1 0 1.000000
Material_0
0  0.016812 -0.087779 -0.546663  0.778936 -0.618944 0.100829  0.899013 0.111698 1 0 1.000000
0  0.015071 -0.085343 -0.584673  0.444329 -0.887031 -0.125488  0.000000 0.000000 1 0 1.000000
0  0.016812 -0.083609 -0.584475  0.823675 -0.567055 0.002846  0.885725 0.103954 1 0 1.000000
Material_0
0  0.015071 -0.085343 -0.584673  0.444329 -0.887031 -0.125488  0.000000 0.000000 1 0 1.000000
0  0.003718 -0.090393 -0.547729  -0.099903 -0.992594 -0.069110  0.936303 0.568810 1 0 1.000000
0  0.003718 -0.086790 -0.580213  0.194154 -0.980969 0.001980  0.929813 0.564991 1 0 1.000000
Material_0
0  -0.020976 -0.085343 -0.584673  -0.366898 -0.665549 -0.649947  0.863784 0.368313 1 0 1.000000
0  -0.018538 -0.061659 -0.735400  -0.486123 -0.794144 -0.364719  0.000000 0.000000 1 0 1.000000
0  -0.009523 -0.086790 -0.580213  -0.159969 -0.968068 -0.193016  0.925796 0.566370 1 0 1.000000
Material_0
0  -0.018538 -0.061659 -0.735400  -0.486123 -0.794144 -0.364719  0.000000 0.000000 1 0 1.000000
0  -0.006904 -0.086394 -0.583286  -0.311453 -0.920662 -0.235328  0.926002 0.565733 1 0 1.000000
0  -0.009523 -0.086790 -0.580213  -0.159969 -0.968068 -0.193016  0.925796 0.566370 1 0 1.000000
Material_0
0  -0.006904 -0.086394 -0.583286  -0.311453 -0.920662 -0.235328  0.926002 0.565733 1 0 1.000000
0  0.003718 -0.086790 -0.580213  0.194154 -0.980969 0.001980  0.929813 0.564991 1 0 1.000000
0  -0.009523 -0.086790 -0.580213  -0.159969 -0.968068 -0.193016  0.000000 0.000000 1 0 1.000000
Material_0
0  -0.014318 -0.089847 -0.534695  -0.134286 -0.684372 0.716661  0.000000 0.000000 1 0 1.000000
0  0.001097 -0.090789 -0.544656  -0.057191 -0.986937 0.150612  0.000000 0.000000 1 0 1.000000
0  0.008408 -0.089847 -0.534695  0.153605 -0.982383 0.106433  0.000000 0.000000 1 0 1.000000
Material_0
0  0.008408 -0.089847 -0.534695  0.153605 -0.982383 0.106433  0.898704 0.115305 1 0 1.000000
0  0.001585 -0.089172 -0.531003  -0.294019 -0.939486 0.175840  0.896335 0.117851 1 0 1.000000
0  -0.007495 -0.089172 -0.531003  0.077035 -0.983242 0.165229  0.000000 0.000000 1 0 1.000000
Material_0
0  0.008408 -0.089847 -0.534695  0.153605 -0.982383 0.106433  0.898704 0.115305 1 0 1.000000
0  -0.007495 -0.089172 -0.531003  0.077035 -0.983242 0.165229  0.000000 0.000000 1 0 1.000000
0  -0.014318 -0.089847 -0.534695  -0.134286 -0.684372 0.716661  0.865020 0.368950 1 0 1.000000
Material_0
0  -0.007495 -0.089172 -0.531003  0.077035 -0.983242 0.165229  0.865329 0.368950 1 0 1.000000
0  -0.002955 0.024938 0.069079  -0.000017 -0.899581 0.436754  0.000000 0.000000 1 0 1.000000
0  -0.014318 -0.089847 -0.534695  -0.134286 -0.684372 0.716661  0.865020 0.368950 1 0 1.000000
Material_0
0  0.006555 0.035900 0.070566  0.466205 -0.002436 0.884673  0.898910 0.201550 1 0 1.000000
0  0.004797 0.028153 0.069079  0.687070 -0.597220 0.413839  0.898910 0.201444 1 0 1.000000
0  0.008007 0.035900 0.069079  0.916717 0.022461 0.398907  0.898910 0.201550 1 0 1.000000
Material_0
0  -0.002955 0.046861 0.069079  0.002930 0.894114 0.447829  0.863578 0.386559 1 0 1.000000
0  0.003798 0.042656 0.070566  0.334499 0.334350 0.881090  0.000000 0.000000 1 0 1.000000
0  0.004797 0.043653 0.069079  0.654981 0.620398 0.431400  0.898910 0.201763 1 0 1.000000
Material_0
0  -0.007495 -0.089172 -0.531003  0.077035 -0.983242 0.165229  0.000000 0.000000 1 0 1.000000
0  0.001585 -0.089172 -0.531003  -0.294019 -0.939486 0.175840  0.896335 0.117851 1 0 1.000000
0  -0.002955 0.024938 0.069079  -0.000017 -0.899581 0.436754  0.000000 0.000000 1 0 1.000000
Material_0
0  0.001585 -0.089172 -0.531003  -0.294019 -0.939486 0.175840  0.896335 0.117851 1 0 1.000000
0  0.008408 -0.089847 -0.534695  0.153605 -0.982383 0.106433  0.898704 0.115305 1 0 1.000000
0  -0.002955 0.024938 0.069079  -0.000017 -0.899581 0.436754  0.000000 0.000000 1 0 1.000000
Material_0
0  0.008408 -0.089847 -0.534695  0.153605 -0.982383 0.106433  0.000000 0.000000 1 0 1.000000
0  0.015071 -0.089513 -0.546862  0.371216 -0.928495 0.009776  0.000000 0.000000 1 0 1.000000
0  -0.002955 0.024938 0.069079  -0.000017 -0.899581 0.436754  0.000000 0.000000 1 0 1.000000
Material_0
0  0.013883 0.053031 -0.741347  0.916611 0.323036 -0.235527  0.496450 0.133976 1 0 1.000000
0  0.018387 -0.053920 -0.733170  0.972884 0.059794 -0.223430  0.500261 0.091967 1 0 1.000000
0  0.013883 -0.057039 -0.741347  0.713242 -0.613847 -0.338346  0.496450 0.089633 1 0 1.000000
Material_0
0  -0.009708 0.042656 0.070566  -0.333626 0.333188 0.881861  0.898601 0.201869 1 0 1.000000
0  -0.013914 0.035900 0.069079  -0.917603 0.022447 0.396863  0.000000 0.000000 1 0 1.000000
0  -0.012463 0.035900 0.070566  -0.466372 0.002345 0.884586  0.898601 0.201763 1 0 1.000000
Material_0
0  0.025192 0.104704 -0.268898  0.971167 0.234558 0.042623  0.906018 0.175242 1 0 1.000000
0  0.004797 0.043653 0.069079  0.654981 0.620398 0.431400  0.898910 0.201763 1 0 1.000000
0  0.008007 0.035900 0.069079  0.916717 0.022461 0.398907  0.898910 0.201550 1 0 1.000000
Material_0
0  -0.030476 0.013725 -0.144659  -0.911497 -0.399692 0.097053  0.000000 0.000000 1 0 1.000000
0  -0.022720 -0.087779 -0.546663  -0.762000 -0.569547 0.308175  0.864505 0.368843 1 0 1.000000
0  -0.010704 0.028153 0.069079  -0.686451 -0.598910 0.412422  0.000000 0.000000 1 0 1.000000
Material_0
0  -0.025300 -0.082831 -0.550281  -0.964374 -0.264323 -0.010780  0.000000 0.000000 1 0 1.000000
0  -0.022720 -0.083609 -0.584475  -0.825103 -0.558673 -0.084196  0.000000 0.000000 1 0 1.000000
0  -0.022720 -0.087779 -0.546663  -0.762000 -0.569547 0.308175  0.000000 0.000000 1 0 1.000000
Material_0
0  0.012633 0.057651 -0.735400  0.176296 0.973737 -0.144070  0.497480 0.137158 1 0 1.000000
0  0.013207 0.120866 -0.529071  0.726220 0.678063 -0.113292  0.000000 0.000000 1 0 1.000000
0  0.018387 0.049918 -0.733170  0.747963 0.470457 -0.468211  0.500261 0.133763 1 0 1.000000
Material_0
0  0.012633 -0.061659 -0.735400  0.528778 -0.809772 -0.254289  0.497480 0.089103 1 0 1.000000
0  -0.019790 -0.057039 -0.741347  -0.274703 -0.904133 -0.327233  0.483368 0.093982 1 0 1.000000
0  0.013883 -0.057039 -0.741347  0.713242 -0.613847 -0.338346  0.496450 0.089633 1 0 1.000000
Material_0
0  0.013883 0.053031 -0.741347  0.916611 0.323036 -0.235527  0.496450 0.133976 1 0 1.000000
0  -0.018538 0.057651 -0.735400  -0.714840 0.583043 -0.386088  0.485428 0.141083 1 0 1.000000
0  0.012633 0.057651 -0.735400  0.176296 0.973737 -0.144070  0.497480 0.137158 1 0 1.000000
Material_0
0  -0.002953 0.132851 -0.268898  -0.001077 0.992142 0.125112  0.000000 0.000000 1 0 1.000000
0  -0.010704 0.043653 0.069079  -0.651565 0.626820 0.427271  0.898601 0.201869 1 0 1.000000
0  -0.002955 0.046861 0.069079  0.002930 0.894114 0.447829  0.863578 0.386559 1 0 1.000000
Material_0
0  0.001097 -0.086394 -0.583286  0.319608 -0.918162 -0.234156  0.928371 0.564991 1 0 1.000000
0  0.012633 -0.061659 -0.735400  0.528778 -0.809772 -0.254289  0.000000 0.000000 1 0 1.000000
0  0.003718 -0.086790 -0.580213  0.194154 -0.980969 0.001980  0.929813 0.564991 1 0 1.000000
Material_0
0  0.012633 -0.061659 -0.735400  0.528778 -0.809772 -0.254289  0.000000 0.000000 1 0 1.000000
0  0.015071 -0.085343 -0.584673  0.444329 -0.887031 -0.125488  0.000000 0.000000 1 0 1.000000
0  0.003718 -0.086790 -0.580213  0.194154 -0.980969 0.001980  0.929813 0.564991 1 0 1.000000
Material_0
0  -0.019113 0.120866 -0.529071  -0.627448 0.764659 -0.146992  0.861929 0.385074 1 0 1.000000
0  -0.024295 0.049918 -0.733170  -0.946385 0.003011 -0.323027  0.000000 0.000000 1 0 1.000000
0  -0.025804 0.104704 -0.529071  -0.965449 0.254961 -0.053875  0.861723 0.384650 1 0 1.000000
Material_0
0  0.019901 0.104704 -0.529071  0.943355 0.328115 -0.049216  0.000000 0.000000 1 0 1.000000
0  0.016948 0.124606 -0.268898  0.696683 0.710196 0.101266  0.904473 0.179591 1 0 1.000000
0  0.025192 0.104704 -0.268898  0.971167 0.234558 0.042623  0.906018 0.175242 1 0 1.000000
Material_0
0  -0.031604 0.019785 -0.145675  -0.992821 -0.098245 0.068222  0.000000 0.000000 1 0 1.000000
0  -0.010704 0.028153 0.069079  -0.686451 -0.598910 0.412422  0.000000 0.000000 1 0 1.000000
0  -0.013914 0.035900 0.069079  -0.917603 0.022447 0.396863  0.000000 0.000000 1 0 1.000000
Material_0
0  0.003798 0.042656 0.070566  0.334499 0.334350 0.881090  0.898910 0.201763 1 0 1.000000
0  0.008007 0.035900 0.069079  0.916717 0.022461 0.398907  0.898910 0.201550 1 0 1.000000
0  0.004797 0.043653 0.069079  0.654981 0.620398 0.431400  0.898910 0.201763 1 0 1.000000
Material_0
0  0.016812 -0.087779 -0.546663  0.778936 -0.618944 0.100829  0.000000 0.000000 1 0 1.000000
0  0.024568 0.013725 -0.144659  0.911483 -0.399726 0.097052  0.000000 0.000000 1 0 1.000000
0  0.004797 0.028153 0.069079  0.687070 -0.597220 0.413839  0.898910 0.201444 1 0 1.000000
Material_0
0  0.003798 0.029149 0.070566  0.334904 -0.333007 0.881445  0.898910 0.201444 1 0 1.000000
0  0.006555 0.035900 0.070566  0.466205 -0.002436 0.884673  0.898910 0.201550 1 0 1.000000
0  0.003798 0.042656 0.070566  0.334499 0.334350 0.881090  0.898910 0.201763 1 0 1.000000
Material_0
0  -0.020976 -0.085343 -0.584673  -0.366898 -0.665549 -0.649947  0.863784 0.368313 1 0 1.000000
0  -0.009523 -0.090393 -0.547729  0.098371 -0.992004 -0.079064  0.932285 0.570189 1 0 1.000000
0  -0.020976 -0.089513 -0.546862  -0.133431 -0.900321 0.414269  0.000000 0.000000 1 0 1.000000
Material_0
0  0.003798 0.029149 0.070566  0.334904 -0.333007 0.881445  0.898910 0.201444 1 0 1.000000
0  -0.012463 0.035900 0.070566  -0.466372 0.002345 0.884586  0.898601 0.201763 1 0 1.000000
0  -0.009708 0.029149 0.070566  -0.334571 -0.332252 0.881857  0.898601 0.201550 1 0 1.000000
Material_0
0  0.003798 0.029149 0.070566  0.334904 -0.333007 0.881445  0.898910 0.201444 1 0 1.000000
0  -0.009708 0.029149 0.070566  -0.334571 -0.332252 0.881857  0.898601 0.201550 1 0 1.000000
0  -0.002955 0.026310 0.070566  -0.000022 -0.475343 0.879801  0.000000 0.000000 1 0 1.000000
Material_0
0  -0.010704 0.028153 0.069079  -0.686451 -0.598910 0.412422  0.000000 0.000000 1 0 1.000000
0  -0.020976 -0.089513 -0.546862  -0.133431 -0.900321 0.414269  0.864505 0.368737 1 0 1.000000
0  -0.002955 0.024938 0.069079  -0.000017 -0.899581 0.436754  0.000000 0.000000 1 0 1.000000
Material_0
0  -0.009708 0.042656 0.070566  -0.333626 0.333188 0.881861  0.000000 0.000000 1 0 1.000000
0  0.003798 0.029149 0.070566  0.334904 -0.333007 0.881445  0.898910 0.201444 1 0 1.000000
0  0.003798 0.042656 0.070566  0.334499 0.334350 0.881090  0.898910 0.201763 1 0 1.000000
Material_0
0  -0.031098 0.104704 -0.268898  -0.894751 -0.081793 0.439010  0.000000 0.000000 1 0 1.000000
0  -0.031604 0.019785 -0.145675  -0.992821 -0.098245 0.068222  0.000000 0.000000 1 0 1.000000
0  -0.013914 0.035900 0.069079  -0.917603 0.022447 0.396863  0.000000 0.000000 1 0 1.000000
Material_0
0  -0.025300 -0.079766 -0.576075  -0.963215 -0.266820 -0.032013  0.000000 0.000000 1 0 1.000000
0  -0.022720 -0.083609 -0.584475  -0.825103 -0.558673 -0.084196  0.000000 0.000000 1 0 1.000000
0  -0.025300 -0.082831 -0.550281  -0.964374 -0.264323 -0.010780  0.000000 0.000000 1 0 1.000000
Material_0
0  -0.031604 0.019785 -0.145675  -0.992821 -0.098245 0.068222  0.000000 0.000000 1 0 1.000000
0  -0.031604 0.019785 -0.397597  -0.999869 -0.013421 -0.009076  0.000000 0.000000 1 0 1.000000
0  -0.025300 -0.082831 -0.550281  -0.964374 -0.264323 -0.010780  0.000000 0.000000 1 0 1.000000
Material_0
0  -0.031604 0.019785 -0.397597  -0.999869 -0.013421 -0.009076  0.000000 0.000000 1 0 1.000000
0  -0.025300 -0.079766 -0.576075  -0.963215 -0.266820 -0.032013  0.000000 0.000000 1 0 1.000000
0  -0.025300 -0.082831 -0.550281  -0.964374 -0.264323 -0.010780  0.000000 0.000000 1 0 1.000000
Material_0
0  -0.025300 -0.079766 -0.576075  -0.963215 -0.266820 -0.032013  0.123142 0.153177 1 0 1.000000
0  -0.025300 -0.079268 -0.579842  -0.965259 -0.258185 -0.040192  0.118712 0.150737 1 0 1.000000
0  -0.022720 -0.083609 -0.584475  -0.825103 -0.558673 -0.084196  0.000000 0.000000 1 0 1.000000
Material_0
0  -0.025300 -0.079268 -0.579842  -0.965259 -0.258185 -0.040192  0.118712 0.150737 1 0 1.000000
0  -0.024295 -0.053920 -0.733170  -0.998893 -0.036261 0.029967  0.483677 0.097377 1 0 1.000000
0  -0.022720 -0.083609 -0.584475  -0.825103 -0.558673 -0.084196  0.000000 0.000000 1 0 1.000000
Material_0
0  -0.024458 -0.030857 -0.728784  -0.994974 0.073768 -0.067712  0.000000 0.000000 1 0 1.000000
0  -0.024458 0.026849 -0.728784  -0.946425 0.307830 0.097567  0.484707 0.130687 1 0 1.000000
0  -0.024295 0.049918 -0.733170  -0.946385 0.003011 -0.323027  0.483677 0.139174 1 0 1.000000
Material_0
0  -0.024458 -0.030857 -0.728784  -0.994974 0.073768 -0.067712  0.000000 0.000000 1 0 1.000000
0  -0.024295 0.049918 -0.733170  -0.946385 0.003011 -0.323027  0.483677 0.139174 1 0 1.000000
0  -0.024295 -0.053920 -0.733170  -0.998893 -0.036261 0.029967  0.483677 0.097377 1 0 1.000000
Material_0
0  0.019392 -0.082831 -0.550281  0.950671 -0.310187 -0.003071  0.000000 0.000000 1 0 1.000000
0  0.024568 0.013725 -0.144659  0.911483 -0.399726 0.097052  0.000000 0.000000 1 0 1.000000
0  0.016812 -0.087779 -0.546663  0.778936 -0.618944 0.100829  0.000000 0.000000 1 0 1.000000
Material_0
0  -0.025300 -0.079268 -0.579842  -0.965259 -0.258185 -0.040192  0.118712 0.150737 1 0 1.000000
0  -0.031604 0.019785 -0.397597  -0.999869 -0.013421 -0.009076  0.000000 0.000000 1 0 1.000000
0  -0.024295 -0.053920 -0.733170  -0.998893 -0.036261 0.029967  0.483677 0.097377 1 0 1.000000
Material_0
0  -0.031604 0.019785 -0.397597  -0.999869 -0.013421 -0.009076  0.000000 0.000000 1 0 1.000000
0  -0.024458 -0.030857 -0.728784  -0.994974 0.073768 -0.067712  0.484707 0.107561 1 0 1.000000
0  -0.024295 -0.053920 -0.733170  -0.998893 -0.036261 0.029967  0.483677 0.097377 1 0 1.000000
Material_0
0  -0.020976 -0.085343 -0.584673  -0.366898 -0.665549 -0.649947  0.000000 0.000000 1 0 1.000000
0  -0.022720 -0.087779 -0.546663  -0.762000 -0.569547 0.308175  0.000000 0.000000 1 0 1.000000
0  -0.022720 -0.083609 -0.584475  -0.825103 -0.558673 -0.084196  0.000000 0.000000 1 0 1.000000
Material_0
0  -0.022720 -0.083609 -0.584475  -0.825103 -0.558673 -0.084196  0.000000 0.000000 1 0 1.000000
0  -0.018538 -0.061659 -0.735400  -0.486123 -0.794144 -0.364719  0.000000 0.000000 1 0 1.000000
0  -0.020976 -0.085343 -0.584673  -0.366898 -0.665549 -0.649947  0.863784 0.368313 1 0 1.000000
Material_0
0  0.016812 -0.083609 -0.584475  0.823675 -0.567055 0.002846  0.885725 0.103954 1 0 1.000000
0  0.019392 -0.082831 -0.550281  0.950671 -0.310187 -0.003071  0.000000 0.000000 1 0 1.000000
0  0.016812 -0.087779 -0.546663  0.778936 -0.618944 0.100829  0.899013 0.111698 1 0 1.000000
Material_0
0  -0.031604 0.019785 -0.145675  -0.992821 -0.098245 0.068222  0.000000 0.000000 1 0 1.000000
0  -0.022720 -0.087779 -0.546663  -0.762000 -0.569547 0.308175  0.000000 0.000000 1 0 1.000000
0  -0.030476 0.013725 -0.144659  -0.911497 -0.399692 0.097053  0.000000 0.000000 1 0 1.000000
Material_0
0  -0.012463 0.035900 0.070566  -0.466372 0.002345 0.884586  0.898601 0.201763 1 0 1.000000
0  -0.010704 0.028153 0.069079  -0.686451 -0.598910 0.412422  0.000000 0.000000 1 0 1.000000
0  -0.009708 0.029149 0.070566  -0.334571 -0.332252 0.881857  0.000000 0.000000 1 0 1.000000
Material_0
0  0.025696 0.019785 -0.145675  0.985910 -0.147183 0.079494  0.567424 0.183304 1 0 1.000000
0  0.025192 0.104704 -0.268898  0.971167 0.234558 0.042623  0.000000 0.000000 1 0 1.000000
0  0.008007 0.035900 0.069079  0.916717 0.022461 0.398907  0.898910 0.201550 1 0 1.000000
Material_0
0  -0.022854 0.124606 -0.268898  -0.404198 0.246073 0.880950  0.863475 0.385392 1 0 1.000000
0  -0.013914 0.035900 0.069079  -0.917603 0.022447 0.396863  0.898601 0.201763 1 0 1.000000
0  -0.010704 0.043653 0.069079  -0.651565 0.626820 0.427271  0.898601 0.201869 1 0 1.000000
Material_0
0  -0.031098 0.104704 -0.268898  -0.894751 -0.081793 0.439010  0.000000 0.000000 1 0 1.000000
0  -0.031604 0.019785 -0.397597  -0.999869 -0.013421 -0.009076  0.000000 0.000000 1 0 1.000000
0  -0.031604 0.019785 -0.145675  -0.992821 -0.098245 0.068222  0.000000 0.000000 1 0 1.000000
Material_0
0  0.003798 0.042656 0.070566  0.334499 0.334350 0.881090  0.898910 0.201763 1 0 1.000000
0  -0.002955 0.045489 0.070566  0.006147 0.473273 0.880894  0.000000 0.000000 1 0 1.000000
0  -0.009708 0.042656 0.070566  -0.333626 0.333188 0.881861  0.000000 0.000000 1 0 1.000000
Material_0
0  -0.002955 0.026310 0.070566  -0.000022 -0.475343 0.879801  0.000000 0.000000 1 0 1.000000
0  -0.010704 0.028153 0.069079  -0.686451 -0.598910 0.412422  0.000000 0.000000 1 0 1.000000
0  -0.002955 0.024938 0.069079  -0.000017 -0.899581 0.436754  0.000000 0.000000 1 0 1.000000
Material_0
0  -0.002953 0.132851 -0.268898  -0.001077 0.992142 0.125112  0.000000 0.000000 1 0 1.000000
0  0.004797 0.043653 0.069079  0.654981 0.620398 0.431400  0.898910 0.201763 1 0 1.000000
0  0.016948 0.124606 -0.268898  0.696683 0.710196 0.101266  0.904473 0.179591 1 0 1.000000
Material_0
0  0.001097 -0.090789 -0.544656  -0.057191 -0.986937 0.150612  0.936097 0.569446 1 0 1.000000
0  -0.009523 -0.086790 -0.580213  -0.159969 -0.968068 -0.193016  0.000000 0.000000 1 0 1.000000
0  0.003718 -0.086790 -0.580213  0.194154 -0.980969 0.001980  0.929813 0.564991 1 0 1.000000
Material_0
0  -0.025804 0.104704 -0.529071  -0.965449 0.254961 -0.053875  0.861723 0.384650 1 0 1.000000
0  -0.024295 0.049918 -0.733170  -0.946385 0.003011 -0.323027  0.000000 0.000000 1 0 1.000000
0  -0.031098 0.104704 -0.268898  -0.894751 -0.081793 0.439010  0.863372 0.385180 1 0 1.000000
Material_0
0  -0.024295 0.049918 -0.733170  -0.946385 0.003011 -0.323027  0.000000 0.000000 1 0 1.000000
0  -0.031604 0.019785 -0.397597  -0.999869 -0.013421 -0.009076  0.000000 0.000000 1 0 1.000000
0  -0.031098 0.104704 -0.268898  -0.894751 -0.081793 0.439010  0.000000 0.000000 1 0 1.000000
Material_0
0  -0.031604 0.019785 -0.397597  -0.999869 -0.013421 -0.009076  0.000000 0.000000 1 0 1.000000
0  -0.025300 -0.079268 -0.579842  -0.965259 -0.258185 -0.040192  0.118712 0.150737 1 0 1.000000
0  -0.025300 -0.079766 -0.576075  -0.963215 -0.266820 -0.032013  0.123142 0.153177 1 0 1.000000
Material_0
0  -0.024295 0.049918 -0.733170  -0.946385 0.003011 -0.323027  0.483677 0.139174 1 0 1.000000
0  -0.024458 0.026849 -0.728784  -0.946425 0.307830 0.097567  0.484707 0.130687 1 0 1.000000
0  -0.031604 0.019785 -0.397597  -0.999869 -0.013421 -0.009076  0.000000 0.000000 1 0 1.000000
Material_0
0  -0.024458 0.026849 -0.728784  -0.946425 0.307830 0.097567  0.484707 0.130687 1 0 1.000000
0  -0.024458 -0.030857 -0.728784  -0.994974 0.073768 -0.067712  0.000000 0.000000 1 0 1.000000
0  -0.031604 0.019785 -0.397597  -0.999869 -0.013421 -0.009076  0.000000 0.000000 1 0 1.000000
Material_0
0  -0.002953 0.127561 -0.529071  0.164035 0.971539 -0.170894  0.000000 0.000000 1 0 1.000000
0  -0.018538 0.057651 -0.735400  -0.714840 0.583043 -0.386088  0.485428 0.141083 1 0 1.000000
0  -0.019113 0.120866 -0.529071  -0.627448 0.764659 -0.146992  0.861929 0.385074 1 0 1.000000
Material_0
0  0.025696 0.019785 -0.145675  0.985910 -0.147183 0.079494  0.567424 0.183304 1 0 1.000000
0  0.004797 0.028153 0.069079  0.687070 -0.597220 0.413839  0.898910 0.201444 1 0 1.000000
0  0.024568 0.013725 -0.144659  0.911483 -0.399726 0.097052  0.000000 0.000000 1 0 1.000000
Material_0
0  -0.019790 0.053031 -0.741347  0.182909 0.661263 -0.727513  0.483368 0.138219 1 0 1.000000
0  -0.024295 -0.053920 -0.733170  -0.998893 -0.036261 0.029967  0.483677 0.097377 1 0 1.000000
0  -0.024295 0.049918 -0.733170  -0.946385 0.003011 -0.323027  0.483677 0.139174 1 0 1.000000
Material_0
0  0.018387 0.049918 -0.733170  0.747963 0.470457 -0.468211  0.500261 0.133763 1 0 1.000000
0  0.035859 0.022563 -0.656035  0.945910 -0.156438 -0.284222  0.000000 0.000000 1 0 1.000000
0  0.018387 -0.053920 -0.733170  0.972884 0.059794 -0.223430  0.500261 0.091967 1 0 1.000000
Material_0
0  0.035859 0.022563 -0.656035  0.945910 -0.156438 -0.284222  0.930843 0.716265 1 0 1.000000
0  0.035859 0.014857 -0.652839  0.770293 -0.421848 -0.478218  0.940938 0.716265 1 0 1.000000
0  0.018387 -0.053920 -0.733170  0.972884 0.059794 -0.223430  0.500261 0.091967 1 0 1.000000
Material_0
0  0.035859 0.014857 -0.652839  0.770293 -0.421848 -0.478218  0.940938 0.716265 1 0 1.000000
0  0.035859 0.011663 -0.645133  0.994204 -0.105898 -0.018567  0.000000 0.000000 1 0 1.000000
0  0.018387 -0.053920 -0.733170  0.972884 0.059794 -0.223430  0.500261 0.091967 1 0 1.000000
Material_0
0  0.035859 0.011663 -0.645133  0.994204 -0.105898 -0.018567  0.000000 0.000000 1 0 1.000000
0  0.019392 -0.079268 -0.579842  0.942091 -0.331790 -0.048787  0.000000 0.000000 1 0 1.000000
0  0.018387 -0.053920 -0.733170  0.972884 0.059794 -0.223430  0.500261 0.091967 1 0 1.000000
Material_0
0  0.019392 -0.079268 -0.579842  0.942091 -0.331790 -0.048787  0.000000 0.000000 1 0 1.000000
0  0.016812 -0.083609 -0.584475  0.823675 -0.567055 0.002846  0.000000 0.000000 1 0 1.000000
0  0.018387 -0.053920 -0.733170  0.972884 0.059794 -0.223430  0.500261 0.091967 1 0 1.000000
Material_0
0  0.019392 -0.079268 -0.579842  0.942091 -0.331790 -0.048787  0.198854 0.124534 1 0 1.000000
0  0.019392 -0.079766 -0.576075  0.940693 -0.336764 -0.041075  0.203283 0.126974 1 0 1.000000
0  0.016812 -0.083609 -0.584475  0.823675 -0.567055 0.002846  0.000000 0.000000 1 0 1.000000
Material_0
0  0.019392 -0.079766 -0.576075  0.940693 -0.336764 -0.041075  0.203283 0.126974 1 0 1.000000
0  0.019392 -0.082831 -0.550281  0.950671 -0.310187 -0.003071  0.000000 0.000000 1 0 1.000000
0  0.016812 -0.083609 -0.584475  0.823675 -0.567055 0.002846  0.885725 0.103954 1 0 1.000000
Material_0
0  0.019392 -0.079766 -0.576075  0.940693 -0.336764 -0.041075  0.203283 0.126974 1 0 1.000000
0  0.035859 0.011663 -0.645133  0.994204 -0.105898 -0.018567  0.000000 0.000000 1 0 1.000000
0  0.019392 -0.082831 -0.550281  0.950671 -0.310187 -0.003071  0.000000 0.000000 1 0 1.000000
Material_0
0  0.035859 0.011663 -0.645133  0.994204 -0.105898 -0.018567  0.000000 0.000000 1 0 1.000000
0  0.025696 0.019785 -0.145675  0.985910 -0.147183 0.079494  0.567424 0.183304 1 0 1.000000
0  0.019392 -0.082831 -0.550281  0.950671 -0.310187 -0.003071  0.000000 0.000000 1 0 1.000000
Material_0
0  0.035859 0.011663 -0.645133  0.994204 -0.105898 -0.018567  0.888197 0.790099 1 0 1.000000
0  0.035859 0.014857 -0.637427  0.999624 -0.024423 0.012434  0.891493 0.797949 1 0 1.000000
0  0.025696 0.019785 -0.145675  0.985910 -0.147183 0.079494  0.567424 0.183304 1 0 1.000000
Material_0
0  0.035859 0.014857 -0.637427  0.999624 -0.024423 0.012434  0.891493 0.797949 1 0 1.000000
0  0.035859 0.022563 -0.634230  0.999915 0.000025 0.013001  0.000000 0.000000 1 0 1.000000
0  0.025696 0.019785 -0.145675  0.985910 -0.147183 0.079494  0.567424 0.183304 1 0 1.000000
Material_0
0  0.035859 0.022563 -0.634230  0.999915 0.000025 0.013001  0.000000 0.000000 1 0 1.000000
0  0.035859 0.030275 -0.637427  0.999682 0.021921 0.012479  0.000000 0.000000 1 0 1.000000
0  0.025696 0.019785 -0.145675  0.985910 -0.147183 0.079494  0.567424 0.183304 1 0 1.000000
Material_0
0  0.035859 0.030275 -0.637427  0.999682 0.021921 0.012479  0.000000 0.000000 1 0 1.000000
0  0.025192 0.104704 -0.268898  0.971167 0.234558 0.042623  0.000000 0.000000 1 0 1.000000
0  0.025696 0.019785 -0.145675  0.985910 -0.147183 0.079494  0.567424 0.183304 1 0 1.000000
Material_0
0  0.003798 0.029149 0.070566  0.334904 -0.333007 0.881445  0.000000 0.000000 1 0 1.000000
0  -0.002955 0.024938 0.069079  -0.000017 -0.899581 0.436754  0.898704 0.201444 1 0 1.000000
0  0.004797 0.028153 0.069079  0.687070 -0.597220 0.413839  0.898910 0.201444 1 0 1.000000
Material_0
0  0.016812 -0.083609 -0.584475  0.823675 -0.567055 0.002846  0.885725 0.103954 1 0 1.000000
0  0.012633 -0.061659 -0.735400  0.528778 -0.809772 -0.254289  0.497480 0.089103 1 0 1.000000
0  0.018387 -0.053920 -0.733170  0.972884 0.059794 -0.223430  0.500261 0.091967 1 0 1.000000
Material_0
0  0.035859 0.030275 -0.637427  0.999682 0.021921 0.012479  0.000000 0.000000 1 0 1.000000
0  0.035859 0.033470 -0.645133  0.978980 0.196670 -0.054028  0.000000 0.000000 1 0 1.000000
0  0.025192 0.104704 -0.268898  0.971167 0.234558 0.042623  0.000000 0.000000 1 0 1.000000
Material_0
0  0.035859 0.033470 -0.645133  0.978980 0.196670 -0.054028  0.000000 0.000000 1 0 1.000000
0  0.019901 0.104704 -0.529071  0.943355 0.328115 -0.049216  0.000000 0.000000 1 0 1.000000
0  0.025192 0.104704 -0.268898  0.971167 0.234558 0.042623  0.000000 0.000000 1 0 1.000000
Material_0
0  -0.019113 0.120866 -0.529071  -0.627448 0.764659 -0.146992  0.861929 0.385074 1 0 1.000000
0  -0.031098 0.104704 -0.268898  -0.894751 -0.081793 0.439010  0.863372 0.385180 1 0 1.000000
0  -0.022854 0.124606 -0.268898  -0.404198 0.246073 0.880950  0.863475 0.385392 1 0 1.000000
Material_0
0  -0.002953 0.127561 -0.529071  0.164035 0.971539 -0.170894  0.000000 0.000000 1 0 1.000000
0  -0.013918 0.129554 -0.383423  -0.400125 0.916224 -0.020800  0.000000 0.000000 1 0 1.000000
0  -0.002953 0.132851 -0.268898  -0.001077 0.992142 0.125112  0.000000 0.000000 1 0 1.000000
Material_0
0  -0.013918 0.129554 -0.383423  -0.400125 0.916224 -0.020800  0.000000 0.000000 1 0 1.000000
0  -0.022854 0.124606 -0.268898  -0.404198 0.246073 0.880950  0.000000 0.000000 1 0 1.000000
0  -0.002953 0.132851 -0.268898  -0.001077 0.992142 0.125112  0.000000 0.000000 1 0 1.000000
Material_0
0  0.016948 0.124606 -0.268898  0.696683 0.710196 0.101266  0.904473 0.179591 1 0 1.000000
0  0.008011 0.129554 -0.383423  0.400068 0.916249 -0.020799  0.000000 0.000000 1 0 1.000000
0  -0.002953 0.132851 -0.268898  -0.001077 0.992142 0.125112  0.900764 0.182350 1 0 1.000000
Material_0
0  0.008011 0.129554 -0.383423  0.400068 0.916249 -0.020799  0.000000 0.000000 1 0 1.000000
0  -0.002953 0.127561 -0.529071  0.164035 0.971539 -0.170894  0.000000 0.000000 1 0 1.000000
0  -0.002953 0.132851 -0.268898  -0.001077 0.992142 0.125112  0.000000 0.000000 1 0 1.000000
Material_0
0  -0.013918 0.129554 -0.383423  -0.400125 0.916224 -0.020800  0.000000 0.000000 1 0 1.000000
0  -0.019113 0.120866 -0.529071  -0.627448 0.764659 -0.146992  0.000000 0.000000 1 0 1.000000
0  -0.022854 0.124606 -0.268898  -0.404198 0.246073 0.880950  0.863475 0.385392 1 0 1.000000
Material_0
0  -0.002955 0.046861 0.069079  0.002930 0.894114 0.447829  0.863578 0.386559 1 0 1.000000
0  -0.009708 0.042656 0.070566  -0.333626 0.333188 0.881861  0.000000 0.000000 1 0 1.000000
0  -0.002955 0.045489 0.070566  0.006147 0.473273 0.880894  0.863578 0.386559 1 0 1.000000
Material_0
0  -0.013918 0.129554 -0.383423  -0.400125 0.916224 -0.020800  0.000000 0.000000 1 0 1.000000
0  -0.002953 0.127561 -0.529071  0.164035 0.971539 -0.170894  0.000000 0.000000 1 0 1.000000
0  -0.019113 0.120866 -0.529071  -0.627448 0.764659 -0.146992  0.861929 0.385074 1 0 1.000000
Material_0
0  0.035859 0.033470 -0.645133  0.978980 0.196670 -0.054028  0.000000 0.000000 1 0 1.000000
0  0.035859 0.030275 -0.652864  0.984959 0.143473 -0.096287  0.000000 0.000000 1 0 1.000000
0  0.018387 0.049918 -0.733170  0.747963 0.470457 -0.468211  0.000000 0.000000 1 0 1.000000
Material_0
0  0.035859 0.030275 -0.652864  0.984959 0.143473 -0.096287  0.000000 0.000000 1 0 1.000000
0  0.035859 0.022563 -0.656035  0.945910 -0.156438 -0.284222  0.000000 0.000000 1 0 1.000000
0  0.018387 0.049918 -0.733170  0.747963 0.470457 -0.468211  0.500261 0.133763 1 0 1.000000
Material_0
0  -0.014318 -0.089847 -0.534695  -0.134286 -0.684372 0.716661  0.865020 0.368950 1 0 1.000000
0  -0.009523 -0.090393 -0.547729  0.098371 -0.992004 -0.079064  0.932285 0.570189 1 0 1.000000
0  -0.006904 -0.090789 -0.544656  0.041096 -0.974893 0.218848  0.933624 0.570295 1 0 1.000000
Material_0
0  0.013207 0.120866 -0.529071  0.726220 0.678063 -0.113292  0.000000 0.000000 1 0 1.000000
0  0.035859 0.033470 -0.645133  0.978980 0.196670 -0.054028  0.000000 0.000000 1 0 1.000000
0  0.018387 0.049918 -0.733170  0.747963 0.470457 -0.468211  0.000000 0.000000 1 0 1.000000
Material_0
0  0.035859 0.030275 -0.652864  0.984959 0.143473 -0.096287  0.000000 0.000000 1 0 1.000000
0  0.035859 0.014857 -0.637427  0.999624 -0.024423 0.012434  0.000000 0.000000 1 0 1.000000
0  0.035859 0.022563 -0.656035  0.945910 -0.156438 -0.284222  0.000000 0.000000 1 0 1.000000
Material_0
0  0.035859 0.014857 -0.637427  0.999624 -0.024423 0.012434  0.000000 0.000000 1 0 1.000000
0  0.035859 0.014857 -0.652839  0.770293 -0.421848 -0.478218  0.940938 0.716265 1 0 1.000000
0  0.035859 0.022563 -0.656035  0.945910 -0.156438 -0.284222  0.930843 0.716265 1 0 1.000000
Material_0
0  0.035859 0.014857 -0.637427  0.999624 -0.024423 0.012434  0.891493 0.797949 1 0 1.000000
0  0.035859 0.011663 -0.645133  0.994204 -0.105898 -0.018567  0.888197 0.790099 1 0 1.000000
0  0.035859 0.014857 -0.652839  0.770293 -0.421848 -0.478218  0.940938 0.716265 1 0 1.000000
Material_0
0  0.019392 -0.079766 -0.576075  0.940693 -0.336764 -0.041075  0.203283 0.126974 1 0 1.000000
0  0.019392 -0.079268 -0.579842  0.942091 -0.331790 -0.048787  0.198854 0.124534 1 0 1.000000
0  0.035859 0.011663 -0.645133  0.994204 -0.105898 -0.018567  0.000000 0.000000 1 0 1.000000
Material_0
0  0.035859 0.030275 -0.652864  0.984959 0.143473 -0.096287  0.000000 0.000000 1 0 1.000000
0  0.035859 0.033470 -0.645133  0.978980 0.196670 -0.054028  0.000000 0.000000 1 0 1.000000
0  0.035859 0.014857 -0.637427  0.999624 -0.024423 0.012434  0.000000 0.000000 1 0 1.000000
Material_0
0  0.035859 0.033470 -0.645133  0.978980 0.196670 -0.054028  0.000000 0.000000 1 0 1.000000
0  0.035859 0.030275 -0.637427  0.999682 0.021921 0.012479  0.000000 0.000000 1 0 1.000000
0  0.035859 0.014857 -0.637427  0.999624 -0.024423 0.012434  0.000000 0.000000 1 0 1.000000
Material_0
0  0.035859 0.030275 -0.637427  0.999682 0.021921 0.012479  0.000000 0.000000 1 0 1.000000
0  0.035859 0.022563 -0.634230  0.999915 0.000025 0.013001  0.000000 0.000000 1 0 1.000000
0  0.035859 0.014857 -0.637427  0.999624 -0.024423 0.012434  0.891493 0.797949 1 0 1.000000
Material_0
0  0.013207 0.120866 -0.529071  0.726220 0.678063 -0.113292  0.000000 0.000000 1 0 1.000000
0  0.008011 0.129554 -0.383423  0.400068 0.916249 -0.020799  0.000000 0.000000 1 0 1.000000
0  0.016948 0.124606 -0.268898  0.696683 0.710196 0.101266  0.904473 0.179591 1 0 1.000000
Material_0
0  0.013207 0.120866 -0.529071  0.726220 0.678063 -0.113292  0.000000 0.000000 1 0 1.000000
0  0.019901 0.104704 -0.529071  0.943355 0.328115 -0.049216  0.000000 0.000000 1 0 1.000000
0  0.035859 0.033470 -0.645133  0.978980 0.196670 -0.054028  0.000000 0.000000 1 0 1.000000
Material_0
0  0.008011 0.129554 -0.383423  0.400068 0.916249 -0.020799  0.000000 0.000000 1 0 1.000000
0  0.013207 0.120866 -0.529071  0.726220 0.678063 -0.113292  0.000000 0.000000 1 0 1.000000
0  -0.002953 0.127561 -0.529071  0.164035 0.971539 -0.170894  0.887476 0.160496 1 0 1.000000
Material_0
0  0.013883 -0.057039 -0.741347  0.713242 -0.613847 -0.338346  0.000000 0.000000 1 0 1.000000
0  -0.019790 -0.057039 -0.741347  -0.274703 -0.904133 -0.327233  0.483368 0.093982 1 0 1.000000
0  -0.019790 0.053031 -0.741347  0.182909 0.661263 -0.727513  0.483368 0.138219 1 0 1.000000
Material_0
0  0.015071 -0.089513 -0.546862  0.371216 -0.928495 0.009776  0.000000 0.000000 1 0 1.000000
0  0.008408 -0.089847 -0.534695  0.153605 -0.982383 0.106433  0.000000 0.000000 1 0 1.000000
0  0.001097 -0.090789 -0.544656  -0.057191 -0.986937 0.150612  0.936097 0.569446 1 0 1.000000
Material_0
0  -0.006904 -0.086394 -0.583286  -0.311453 -0.920662 -0.235328  0.926002 0.565733 1 0 1.000000
0  -0.018538 -0.061659 -0.735400  -0.486123 -0.794144 -0.364719  0.000000 0.000000 1 0 1.000000
0  0.012633 -0.061659 -0.735400  0.528778 -0.809772 -0.254289  0.000000 0.000000 1 0 1.000000
Material_0
0  0.016812 -0.087779 -0.546663  0.778936 -0.618944 0.100829  0.000000 0.000000 1 0 1.000000
0  0.004797 0.028153 0.069079  0.687070 -0.597220 0.413839  0.898910 0.201444 1 0 1.000000
0  -0.002955 0.024938 0.069079  -0.000017 -0.899581 0.436754  0.898704 0.201444 1 0 1.000000
Material_0
0  0.016812 -0.087779 -0.546663  0.778936 -0.618944 0.100829  0.899013 0.111698 1 0 1.000000
0  0.015071 -0.089513 -0.546862  0.371216 -0.928495 0.009776  0.000000 0.000000 1 0 1.000000
0  0.015071 -0.085343 -0.584673  0.444329 -0.887031 -0.125488  0.000000 0.000000 1 0 1.000000
Material_0
0  0.015071 -0.085343 -0.584673  0.444329 -0.887031 -0.125488  0.000000 0.000000 1 0 1.000000
0  0.015071 -0.089513 -0.546862  0.371216 -0.928495 0.009776  0.000000 0.000000 1 0 1.000000
0  0.003718 -0.090393 -0.547729  -0.099903 -0.992594 -0.069110  0.936303 0.568810 1 0 1.000000
Material_0
0  -0.014318 -0.089847 -0.534695  -0.134286 -0.684372 0.716661  0.000000 0.000000 1 0 1.000000
0  -0.006904 -0.090789 -0.544656  0.041096 -0.974893 0.218848  0.933624 0.570295 1 0 1.000000
0  0.001097 -0.090789 -0.544656  -0.057191 -0.986937 0.150612  0.000000 0.000000 1 0 1.000000
Material_0
0  0.006555 0.035900 0.070566  0.466205 -0.002436 0.884673  0.898910 0.201550 1 0 1.000000
0  0.003798 0.029149 0.070566  0.334904 -0.333007 0.881445  0.000000 0.000000 1 0 1.000000
0  0.004797 0.028153 0.069079  0.687070 -0.597220 0.413839  0.898910 0.201444 1 0 1.000000
Material_0
0  -0.002955 0.046861 0.069079  0.002930 0.894114 0.447829  0.863578 0.386559 1 0 1.000000
0  -0.002955 0.045489 0.070566  0.006147 0.473273 0.880894  0.863578 0.386559 1 0 1.000000
0  0.003798 0.042656 0.070566  0.334499 0.334350 0.881090  0.000000 0.000000 1 0 1.000000
Material_0
0  0.013883 0.053031 -0.741347  0.916611 0.323036 -0.235527  0.496450 0.133976 1 0 1.000000
0  0.018387 0.049918 -0.733170  0.747963 0.470457 -0.468211  0.500261 0.133763 1 0 1.000000
0  0.018387 -0.053920 -0.733170  0.972884 0.059794 -0.223430  0.500261 0.091967 1 0 1.000000
Material_0
0  -0.009708 0.042656 0.070566  -0.333626 0.333188 0.881861  0.898601 0.201869 1 0 1.000000
0  -0.010704 0.043653 0.069079  -0.651565 0.626820 0.427271  0.898601 0.201869 1 0 1.000000
0  -0.013914 0.035900 0.069079  -0.917603 0.022447 0.396863  0.000000 0.000000 1 0 1.000000
Material_0
0  0.025192 0.104704 -0.268898  0.971167 0.234558 0.042623  0.906018 0.175242 1 0 1.000000
0  0.016948 0.124606 -0.268898  0.696683 0.710196 0.101266  0.904473 0.179591 1 0 1.000000
0  0.004797 0.043653 0.069079  0.654981 0.620398 0.431400  0.898910 0.201763 1 0 1.000000
Material_0
0  0.012633 0.057651 -0.735400  0.176296 0.973737 -0.144070  0.497480 0.137158 1 0 1.000000
0  -0.002953 0.127561 -0.529071  0.164035 0.971539 -0.170894  0.000000 0.000000 1 0 1.000000
0  0.013207 0.120866 -0.529071  0.726220 0.678063 -0.113292  0.000000 0.000000 1 0 1.000000
Material_0
0  0.012633 -0.061659 -0.735400  0.528778 -0.809772 -0.254289  0.497480 0.089103 1 0 1.000000
0  -0.018538 -0.061659 -0.735400  -0.486123 -0.794144 -0.364719  0.485428 0.093134 1 0 1.000000
0  -0.019790 -0.057039 -0.741347  -0.274703 -0.904133 -0.327233  0.483368 0.093982 1 0 1.000000
Material_0
0  0.013883 0.053031 -0.741347  0.916611 0.323036 -0.235527  0.496450 0.133976 1 0 1.000000
0  -0.019790 0.053031 -0.741347  0.182909 0.661263 -0.727513  0.483368 0.138219 1 0 1.000000
0  -0.018538 0.057651 -0.735400  -0.714840 0.583043 -0.386088  0.485428 0.141083 1 0 1.000000
Material_0
0  -0.002953 0.132851 -0.268898  -0.001077 0.992142 0.125112  0.000000 0.000000 1 0 1.000000
0  -0.022854 0.124606 -0.268898  -0.404198 0.246073 0.880950  0.000000 0.000000 1 0 1.000000
0  -0.010704 0.043653 0.069079  -0.651565 0.626820 0.427271  0.898601 0.201869 1 0 1.000000
Material_0
0  -0.019113 0.120866 -0.529071  -0.627448 0.764659 -0.146992  0.861929 0.385074 1 0 1.000000
0  -0.018538 0.057651 -0.735400  -0.714840 0.583043 -0.386088  0.485428 0.141083 1 0 1.000000
0  -0.024295 0.049918 -0.733170  -0.946385 0.003011 -0.323027  0.000000 0.000000 1 0 1.000000
Material_0
0  0.019901 0.104704 -0.529071  0.943355 0.328115 -0.049216  0.000000 0.000000 1 0 1.000000
0  0.013207 0.120866 -0.529071  0.726220 0.678063 -0.113292  0.000000 0.000000 1 0 1.000000
0  0.016948 0.124606 -0.268898  0.696683 0.710196 0.101266  0.904473 0.179591 1 0 1.000000
Material_0
0  -0.031604 0.019785 -0.145675  -0.992821 -0.098245 0.068222  0.000000 0.000000 1 0 1.000000
0  -0.030476 0.013725 -0.144659  -0.911497 -0.399692 0.097053  0.000000 0.000000 1 0 1.000000
0  -0.010704 0.028153 0.069079  -0.686451 -0.598910 0.412422  0.000000 0.000000 1 0 1.000000
Material_0
0  0.003798 0.042656 0.070566  0.334499 0.334350 0.881090  0.898910 0.201763 1 0 1.000000
0  0.006555 0.035900 0.070566  0.466205 -0.002436 0.884673  0.898910 0.201550 1 0 1.000000
0  0.008007 0.035900 0.069079  0.916717 0.022461 0.398907  0.898910 0.201550 1 0 1.000000
Material_0
0  -0.020976 -0.085343 -0.584673  -0.366898 -0.665549 -0.649947  0.863784 0.368313 1 0 1.000000
0  -0.009523 -0.086790 -0.580213  -0.159969 -0.968068 -0.193016  0.925796 0.566370 1 0 1.000000
0  -0.009523 -0.090393 -0.547729  0.098371 -0.992004 -0.079064  0.932285 0.570189 1 0 1.000000
Material_0
0  -0.010704 0.028153 0.069079  -0.686451 -0.598910 0.412422  0.000000 0.000000 1 0 1.000000
0  -0.022720 -0.087779 -0.546663  -0.762000 -0.569547 0.308175  0.864505 0.368843 1 0 1.000000
0  -0.020976 -0.089513 -0.546862  -0.133431 -0.900321 0.414269  0.864505 0.368737 1 0 1.000000
Material_0
0  -0.009708 0.042656 0.070566  -0.333626 0.333188 0.881861  0.000000 0.000000 1 0 1.000000
0  -0.012463 0.035900 0.070566  -0.466372 0.002345 0.884586  0.898601 0.201763 1 0 1.000000
0  0.003798 0.029149 0.070566  0.334904 -0.333007 0.881445  0.898910 0.201444 1 0 1.000000
Material_0
0  0.019392 -0.082831 -0.550281  0.950671 -0.310187 -0.003071  0.000000 0.000000 1 0 1.000000
0  0.025696 0.019785 -0.145675  0.985910 -0.147183 0.079494  0.567424 0.183304 1 0 1.000000
0  0.024568 0.013725 -0.144659  0.911483 -0.399726 0.097052  0.000000 0.000000 1 0 1.000000
Material_0
0  -0.020976 -0.085343 -0.584673  -0.366898 -0.665549 -0.649947  0.000000 0.000000 1 0 1.000000
0  -0.020976 -0.089513 -0.546862  -0.133431 -0.900321 0.414269  0.864505 0.368737 1 0 1.000000
0  -0.022720 -0.087779 -0.546663  -0.762000 -0.569547 0.308175  0.000000 0.000000 1 0 1.000000
Material_0
0  -0.022720 -0.083609 -0.584475  -0.825103 -0.558673 -0.084196  0.000000 0.000000 1 0 1.000000
0  -0.024295 -0.053920 -0.733170  -0.998893 -0.036261 0.029967  0.483677 0.097377 1 0 1.000000
0  -0.018538 -0.061659 -0.735400  -0.486123 -0.794144 -0.364719  0.000000 0.000000 1 0 1.000000
Material_0
0  -0.031604 0.019785 -0.145675  -0.992821 -0.098245 0.068222  0.000000 0.000000 1 0 1.000000
0  -0.025300 -0.082831 -0.550281  -0.964374 -0.264323 -0.010780  0.000000 0.000000 1 0 1.000000
0  -0.022720 -0.087779 -0.546663  -0.762000 -0.569547 0.308175  0.000000 0.000000 1 0 1.000000
Material_0
0  -0.012463 0.035900 0.070566  -0.466372 0.002345 0.884586  0.898601 0.201763 1 0 1.000000
0  -0.013914 0.035900 0.069079  -0.917603 0.022447 0.396863  0.000000 0.000000 1 0 1.000000
0  -0.010704 0.028153 0.069079  -0.686451 -0.598910 0.412422  0.000000 0.000000 1 0 1.000000
Material_0
0  -0.022854 0.124606 -0.268898  -0.404198 0.246073 0.880950  0.863475 0.385392 1 0 1.000000
0  -0.031098 0.104704 -0.268898  -0.894751 -0.081793 0.439010  0.000000 0.000000 1 0 1.000000
0  -0.013914 0.035900 0.069079  -0.917603 0.022447 0.396863  0.898601 0.201763 1 0 1.000000
Material_0
0  -0.002955 0.026310 0.070566  -0.000022 -0.475343 0.879801  0.000000 0.000000 1 0 1.000000
0  -0.009708 0.029149 0.070566  -0.334571 -0.332252 0.881857  0.000000 0.000000 1 0 1.000000
0  -0.010704 0.028153 0.069079  -0.686451 -0.598910 0.412422  0.000000 0.000000 1 0 1.000000
Material_0
0  -0.002953 0.132851 -0.268898  -0.001077 0.992142 0.125112  0.000000 0.000000 1 0 1.000000
0  -0.002955 0.046861 0.069079  0.002930 0.894114 0.447829  0.863578 0.386559 1 0 1.000000
0  0.004797 0.043653 0.069079  0.654981 0.620398 0.431400  0.898910 0.201763 1 0 1.000000
Material_0
0  0.001097 -0.090789 -0.544656  -0.057191 -0.986937 0.150612  0.936097 0.569446 1 0 1.000000
0  -0.006904 -0.090789 -0.544656  0.041096 -0.974893 0.218848  0.933624 0.570295 1 0 1.000000
0  -0.009523 -0.086790 -0.580213  -0.159969 -0.968068 -0.193016  0.000000 0.000000 1 0 1.000000
Material_0
0  -0.002953 0.127561 -0.529071  0.164035 0.971539 -0.170894  0.000000 0.000000 1 0 1.000000
0  0.012633 0.057651 -0.735400  0.176296 0.973737 -0.144070  0.497480 0.137158 1 0 1.000000
0  -0.018538 0.057651 -0.735400  -0.714840 0.583043 -0.386088  0.485428 0.141083 1 0 1.000000
Material_0
0  0.025696 0.019785 -0.145675  0.985910 -0.147183 0.079494  0.567424 0.183304 1 0 1.000000
0  0.008007 0.035900 0.069079  0.916717 0.022461 0.398907  0.898910 0.201550 1 0 1.000000
0  0.004797 0.028153 0.069079  0.687070 -0.597220 0.413839  0.898910 0.201444 1 0 1.000000
Material_0
0  -0.019790 0.053031 -0.741347  0.182909 0.661263 -0.727513  0.483368 0.138219 1 0 1.000000
0  -0.019790 -0.057039 -0.741347  -0.274703 -0.904133 -0.327233  0.483368 0.093982 1 0 1.000000
0  -0.024295 -0.053920 -0.733170  -0.998893 -0.036261 0.029967  0.483677 0.097377 1 0 1.000000
Material_0
0  0.003798 0.029149 0.070566  0.334904 -0.333007 0.881445  0.000000 0.000000 1 0 1.000000
0  -0.002955 0.026310 0.070566  -0.000022 -0.475343 0.879801  0.000000 0.000000 1 0 1.000000
0  -0.002955 0.024938 0.069079  -0.000017 -0.899581 0.436754  0.898704 0.201444 1 0 1.000000
Material_0
0  0.016812 -0.083609 -0.584475  0.823675 -0.567055 0.002846  0.885725 0.103954 1 0 1.000000
0  0.015071 -0.085343 -0.584673  0.444329 -0.887031 -0.125488  0.000000 0.000000 1 0 1.000000
0  0.012633 -0.061659 -0.735400  0.528778 -0.809772 -0.254289  0.497480 0.089103 1 0 1.000000
Material_0
0  -0.019113 0.120866 -0.529071  -0.627448 0.764659 -0.146992  0.861929 0.385074 1 0 1.000000
0  -0.025804 0.104704 -0.529071  -0.965449 0.254961 -0.053875  0.861723 0.384650 1 0 1.000000
0  -0.031098 0.104704 -0.268898  -0.894751 -0.081793 0.439010  0.863372 0.385180 1 0 1.000000
Material_0
0  -0.002955 0.046861 0.069079  0.002930 0.894114 0.447829  0.863578 0.386559 1 0 1.000000
0  -0.010704 0.043653 0.069079  -0.651565 0.626820 0.427271  0.898601 0.201869 1 0 1.000000
0  -0.009708 0.042656 0.070566  -0.333626 0.333188 0.881861  0.000000 0.000000 1 0 1.000000
Material_0
0  -0.014318 -0.089847 -0.534695  -0.134286 -0.684372 0.716661  0.865020 0.368950 1 0 1.000000
0  -0.020976 -0.089513 -0.546862  -0.133431 -0.900321 0.414269  0.000000 0.000000 1 0 1.000000
0  -0.009523 -0.090393 -0.547729  0.098371 -0.992004 -0.079064  0.932285 0.570189 1 0 1.000000
end
